<?xml version="1.0" encoding="utf-8"?>
<!-- Generator: Adobe Illustrator 27.5.0, SVG Export Plug-In . SVG Version: 6.00 Build 0)  -->
<svg version="1.1" id="LOGO" xmlns="http://www.w3.org/2000/svg" xmlns:xlink="http://www.w3.org/1999/xlink" x="0px" y="0px"
	 viewBox="0 0 500 500" style="enable-background:new 0 0 500 500;" xml:space="preserve">
<g>
	<defs>
		<rect id="SVGID_1_" width="500" height="500"/>
	</defs>
	<clipPath id="SVGID_00000039109352114445258840000006176608355064296854_">
		<use xlink:href="#SVGID_1_"  style="overflow:visible;"/>
	</clipPath>
	
		<rect style="clip-path:url(#SVGID_00000039109352114445258840000006176608355064296854_);fill:#FFFFFF;" width="500" height="500"/>
	
		<ellipse transform="matrix(0.7071 -0.7071 0.7071 0.7071 -75.8316 238.5173)" style="clip-path:url(#SVGID_00000039109352114445258840000006176608355064296854_);fill:#FEEBFF;" cx="250" cy="210.795" rx="141.204" ry="141.204"/>
	<g style="clip-path:url(#SVGID_00000039109352114445258840000006176608355064296854_);">
		<g>
			<path style="fill:#0034D5;" d="M254.83,219.157h-64.059c-5.706,0-10.349-4.642-10.349-10.349c0-5.706,4.643-10.349,10.349-10.349
				h64.059c5.706,0,10.349,4.643,10.349,10.349C265.179,214.514,260.536,219.157,254.83,219.157z M190.771,202.46
				c-3.501,0-6.349,2.848-6.349,6.349c0,3.5,2.848,6.349,6.349,6.349h64.059c3.501,0,6.349-2.848,6.349-6.349
				c0-3.501-2.848-6.349-6.349-6.349H190.771z"/>
		</g>
		<g>
			<path style="fill:#0034D5;" d="M317.889,270.798c-10.704,0.002-22.087-21.348-23.456-23.994c-0.32-0.62-0.295-1.362,0.067-1.958
				c0.363-0.597,1.011-0.96,1.709-0.96h34.595c-1.231-10.379-11.658-16.872-11.77-16.94c-0.941-0.576-1.24-1.806-0.667-2.747
				c0.575-0.942,1.802-1.242,2.745-0.67c0.563,0.342,13.81,8.543,13.81,22.357c0,1.105-0.896,2-2,2h-15.003
				c3.103,3.859,8.639,11.728,7.36,17.36c-0.36,1.586-1.424,3.737-4.448,4.975C319.862,270.615,318.878,270.798,317.889,270.798z
				 M299.576,247.885c5.352,9.368,14.214,20.897,19.741,18.632c1.553-0.635,1.92-1.535,2.061-2.156
				c0.905-3.987-4.607-11.929-8.295-15.998c-0.133-0.146-0.24-0.308-0.321-0.478H299.576z"/>
		</g>
		<g>
			<path style="fill:#0034D5;" d="M174.322,244.214h-11.17c-0.612,0-1.189-0.28-1.569-0.76c-0.379-0.48-0.518-1.107-0.377-1.702
				l2.753-11.602c0.148-0.622,0.584-1.136,1.173-1.383l20.558-8.609c1.019-0.428,2.191,0.054,2.617,1.072
				c0.427,1.018-0.053,2.19-1.072,2.617l-19.62,8.216l-1.934,8.15h8.64c1.105,0,2,0.896,2,2
				C176.322,243.318,175.426,244.214,174.322,244.214z"/>
		</g>
		<g>
			<path style="fill:#0034D5;" d="M235.65,262.108c-0.135,0-0.272-0.014-0.41-0.042c-1.081-0.226-1.775-1.284-1.55-2.366
				c0.171-0.832,4.023-20.521-11.677-27.25c-16.4-7.03-44.243,6.449-44.523,6.585c-0.992,0.485-2.19,0.076-2.676-0.915
				c-0.486-0.992-0.077-2.19,0.915-2.676c1.208-0.592,29.786-14.415,47.859-6.67c18.723,8.024,14.066,31.507,14.017,31.743
				C237.409,261.46,236.577,262.108,235.65,262.108z"/>
		</g>
		<g>
			<path style="fill:#0034D5;" d="M314.565,287.432c-13.39,0-24.283-10.894-24.283-24.283c0-5.565,1.932-11.005,5.438-15.315
				c0.697-0.856,1.957-0.985,2.814-0.289c0.857,0.697,0.986,1.957,0.29,2.814c-2.929,3.6-4.541,8.143-4.541,12.791
				c0,11.185,9.099,20.283,20.283,20.283c11.185,0,20.283-9.099,20.283-20.283c0-6.115-2.72-11.843-7.461-15.716
				c-0.855-0.699-0.982-1.958-0.283-2.814c0.7-0.855,1.959-0.982,2.814-0.284c5.675,4.636,8.93,11.494,8.93,18.814
				C338.849,276.538,327.955,287.432,314.565,287.432z"/>
		</g>
		<g>
			<path style="fill:none;stroke:#0034D5;stroke-width:4;stroke-linecap:round;stroke-linejoin:round;stroke-miterlimit:10;" d="
				M328.653,245.883"/>
		</g>
		<g>
			<path style="fill:none;stroke:#0034D5;stroke-width:4;stroke-linecap:round;stroke-linejoin:round;stroke-miterlimit:10;" d="
				M314.565,240.865"/>
		</g>
		<g>
			<path style="fill:#0034D5;" d="M198.408,283.763c-13.844,0-24.283-9.873-24.283-22.966c0-1.104,0.896-2,2-2c1.105,0,2,0.896,2,2
				c0,10.813,8.72,18.966,20.283,18.966c11.563,0,20.283-8.153,20.283-18.966c0-1.104,0.896-2,2-2c1.105,0,2,0.896,2,2
				C222.691,273.89,212.251,283.763,198.408,283.763z"/>
		</g>
		<g>
			<path style="fill:#0034D5;" d="M266.39,186.321c-0.868,0-1.668-0.57-1.921-1.446c-0.306-1.061,0.307-2.17,1.367-2.476
				l9.644-2.782c1.061-0.306,2.17,0.306,2.477,1.368c0.306,1.061-0.307,2.17-1.367,2.476l-9.644,2.782
				C266.76,186.295,266.573,186.321,266.39,186.321z"/>
		</g>
		<g>
			<path style="fill:#0034D5;" d="M279.696,172.309c-0.525,0-1.051-0.206-1.443-0.616l-8.484-8.851
				c-0.765-0.797-0.738-2.063,0.06-2.828c0.797-0.764,2.061-0.739,2.827,0.06l8.484,8.851c0.765,0.797,0.738,2.063-0.06,2.828
				C280.692,172.124,280.194,172.309,279.696,172.309z"/>
		</g>
		<g>
			<path style="fill:#0034D5;" d="M266.391,167.884c-0.489,0-0.979-0.178-1.365-0.539c-0.808-0.754-0.851-2.02-0.097-2.827
				l9.064-9.702c0.757-0.807,2.021-0.85,2.827-0.096c0.808,0.754,0.851,2.02,0.097,2.827l-9.064,9.702
				C267.458,167.67,266.925,167.884,266.391,167.884z"/>
		</g>
		<g>
			<path style="fill:#0034D5;" d="M286.12,262.108H167.74c-0.63,0-1.223-0.297-1.601-0.801c-0.378-0.504-0.496-1.156-0.319-1.761
				c1.309-4.473,13.257-43.71,29.366-44.388c15.025-0.634,56.592-0.008,57.01-0.002c0.551,0.009,1.074,0.245,1.446,0.651
				c0.371,0.407,0.559,0.95,0.518,1.499c-0.012,0.155-1.073,15.56,6.171,23.041c2.795,2.886,6.393,4.192,11.021,3.998
				c10.662-0.454,18.087-12.393,20.473-23.292c2.15-9.822,0.987-23.175-9.363-28.485c-0.027-0.014-0.054-0.028-0.08-0.044
				c-0.001,0-0.001,0-0.001,0c-0.001-0.001-0.002-0.001-0.003-0.002c-0.242-0.138-0.445-0.319-0.604-0.529l-11.444-14.429
				c-0.355-0.448-0.502-1.027-0.402-1.591c0.1-0.563,0.436-1.057,0.924-1.356l19.234-11.801c0.134-0.085,0.278-0.156,0.435-0.21
				c0.309-0.105,0.626-0.131,0.927-0.089l17.854,2.133c0.982,0.117,1.731,0.936,1.762,1.924l0.459,14.902
				c0.023,0.762-0.389,1.471-1.062,1.829l-8.829,4.681c18.104,9.967,20.348,35.923,20.439,37.094
				c0.079,1.01-0.609,1.919-1.602,2.117c-10.601,2.121-27.165,25.244-32.653,33.975C287.447,261.755,286.808,262.108,286.12,262.108
				z M170.445,258.108h114.58c3.388-5.235,19.858-29.848,32.862-34.34c-0.839-6.029-4.88-27.079-20.944-33.587l-8.493,1.652
				c7.189,6.285,10.033,17.51,7.283,30.076c-2.704,12.35-11.434,25.889-24.211,26.433c-5.755,0.241-10.487-1.512-14.073-5.22
				c-6.804-7.036-7.411-19.108-7.356-23.994c-8.569-0.117-41.739-0.52-54.739,0.027
				C184.879,219.597,174.508,245.385,170.445,258.108z M274.865,176.847l9.313,11.742l12.306-2.402l-6.399-18.678L274.865,176.847z
				 M294.092,166.862l5.971,17.428l7.422-3.935l-0.368-11.937L294.092,166.862z"/>
		</g>
		<g>
			<path style="fill:#0034D5;" d="M200.561,273.236c-1.5,0-2.955-0.181-4.367-0.542c-8.839-2.267-12.381-10.785-12.527-11.146
				c-0.415-1.023,0.079-2.19,1.103-2.605c1.021-0.414,2.186,0.078,2.603,1.098c0.042,0.102,2.993,7.052,9.854,8.788
				c5.963,1.504,13.216-1.175,21.559-7.976c0.856-0.697,2.116-0.57,2.814,0.286c0.698,0.857,0.57,2.116-0.287,2.814
				C213.738,270.128,206.78,273.236,200.561,273.236z"/>
		</g>
		<g>
			<path style="fill:#0034D5;" d="M195.269,252.474c-0.261,0-0.527-0.052-0.783-0.16c-1.016-0.434-1.489-1.608-1.056-2.624
				l5.277-12.389c0.432-1.016,1.605-1.49,2.624-1.056c1.016,0.433,1.489,1.607,1.056,2.624l-5.277,12.389
				C196.786,252.018,196.046,252.474,195.269,252.474z"/>
		</g>
		<g>
			<path style="fill:#0034D5;" d="M207.777,252.474c-0.261,0-0.527-0.052-0.783-0.16c-1.016-0.434-1.489-1.608-1.056-2.624
				l5.277-12.389c0.432-1.016,1.605-1.49,2.624-1.056c1.016,0.433,1.489,1.607,1.056,2.624l-5.277,12.389
				C209.294,252.018,208.555,252.474,207.777,252.474z"/>
		</g>
		<g>
			<g>
				<g>
					<path style="fill:#0034D5;" d="M252.252,202.425H184.77c-1.104,0-2-0.895-2-2v-61.281c0-1.105,0.896-2,2-2h67.482
						c1.104,0,2,0.895,2,2v61.281C254.252,201.53,253.356,202.425,252.252,202.425z M186.77,198.425h63.482v-57.281H186.77V198.425z
						"/>
				</g>
				<g>
					<path style="fill:#0034D5;" d="M184.772,141.145c-0.642,0-1.272-0.308-1.659-0.879c-0.619-0.915-0.379-2.158,0.536-2.777
						l12.256-8.291c0.331-0.224,0.721-0.343,1.121-0.343h63.805c0.815,0,1.549,0.495,1.854,1.251
						c0.306,0.756,0.121,1.621-0.465,2.188l-8.579,8.291c-0.793,0.768-2.06,0.746-2.828-0.048c-0.768-0.794-0.746-2.06,0.048-2.828
						l5.021-4.853h-58.245l-11.748,7.948C185.548,141.033,185.158,141.145,184.772,141.145z"/>
				</g>
				<g>
					<path style="fill:#0034D5;" d="M252.251,202.425c-0.471,0-0.943-0.165-1.324-0.501c-0.828-0.731-0.905-1.996-0.174-2.823
						l8.078-9.137v-59.11c0-1.105,0.896-2,2-2c1.104,0,2,0.895,2,2v59.867c0,0.488-0.179,0.959-0.502,1.325l-8.579,9.705
						C253.355,202.197,252.805,202.425,252.251,202.425z"/>
				</g>
			</g>
			<g>
				<path style="fill:#0034D5;" d="M222.376,140.134c-0.45,0-0.902-0.151-1.276-0.461c-0.85-0.705-0.968-1.966-0.263-2.816
					l5.586-6.735c0.705-0.85,1.966-0.967,2.816-0.263c0.85,0.705,0.968,1.966,0.263,2.816l-5.586,6.735
					C223.521,139.887,222.951,140.134,222.376,140.134z"/>
			</g>
		</g>
	</g>
	<g style="clip-path:url(#SVGID_00000039109352114445258840000006176608355064296854_);">
		<g>
			<path style="fill:#0034D5;" d="M208.674,167.547c-6.211,0-11.265-5.833-11.265-13.002c0-1.393,0.19-2.766,0.564-4.08
				c0.303-1.063,1.407-1.677,2.472-1.375c1.062,0.303,1.678,1.409,1.375,2.472c-0.273,0.957-0.411,1.961-0.411,2.983
				c0,4.964,3.259,9.002,7.265,9.002c4.006,0,7.265-4.039,7.265-9.002c0-1.014-0.136-2.008-0.403-2.955
				c-0.3-1.063,0.318-2.168,1.381-2.469c1.063-0.3,2.168,0.318,2.469,1.381c0.367,1.301,0.554,2.661,0.554,4.043
				C219.939,161.714,214.886,167.547,208.674,167.547z"/>
		</g>
		<g>
			<path style="fill:#0034D5;" d="M203.133,165.347c-0.162,0-0.326-0.02-0.491-0.061c-1.071-0.27-1.72-1.357-1.45-2.429
				l3.111-12.333c0.27-1.072,1.355-1.721,2.429-1.45c1.071,0.27,1.72,1.357,1.45,2.429l-3.111,12.333
				C204.842,164.742,204.027,165.347,203.133,165.347z"/>
		</g>
		<g>
			<path style="fill:#0034D5;" d="M214.198,164.17c-0.895,0-1.709-0.605-1.938-1.511l-2.814-11.156
				c-0.27-1.071,0.379-2.158,1.45-2.429c1.069-0.268,2.158,0.379,2.429,1.45l2.814,11.156c0.27,1.071-0.379,2.158-1.45,2.429
				C214.524,164.15,214.36,164.17,214.198,164.17z"/>
		</g>
		<g>
			<path style="fill:#0034D5;" d="M208.674,192.556c-1.105,0-2-0.895-2-2v-25.008c0-1.104,0.895-2,2-2c1.104,0,2,0.896,2,2v25.008
				C210.674,191.66,209.779,192.556,208.674,192.556z"/>
		</g>
		<g>
			<path style="fill:#0034D5;" d="M235.268,192.556c-1.104,0-2-0.895-2-2v-16.324c-1.731-0.322-4.263-1.142-6.374-3.22
				c-2.461-2.422-3.708-5.864-3.708-10.229c0-4.395,1.268-7.724,3.768-9.897c3.61-3.14,8.392-2.508,8.593-2.48
				c0.987,0.139,1.722,0.983,1.722,1.98v40.17C237.268,191.66,236.372,192.556,235.268,192.556z M233.268,152.392
				c-1.105,0.128-2.547,0.506-3.715,1.533c-1.571,1.382-2.367,3.689-2.367,6.857c0,3.253,0.846,5.736,2.515,7.379
				c1.132,1.115,2.483,1.684,3.567,1.975V152.392z"/>
		</g>
	</g>
	<g style="clip-path:url(#SVGID_00000039109352114445258840000006176608355064296854_);">
		<text transform="matrix(1 0 0 1 140.3542 403.4514)" style="fill:#0034D5; font-family:'BebasNeue-Regular'; font-size:45px;">COMPANY NAME</text>
	</g>
</g>
</svg>
